<svg width="240" height="36" viewBox="0 0 240 36" fill="none" xmlns="http://www.w3.org/2000/svg">
<path d="M32.31 22.5H25.5C24.7044 22.5 23.9413 22.8161 23.3787 23.3787C22.8161 23.9413 22.5 24.7044 22.5 25.5V32.31M10.5 5.01V7.5C10.5 8.69347 10.9741 9.83807 11.818 10.682C12.6619 11.5259 13.8065 12 15 12C15.7956 12 16.5587 12.3161 17.1213 12.8787C17.6839 13.4413 18 14.2044 18 15C18 16.65 19.35 18 21 18C21.7956 18 22.5587 17.6839 23.1213 17.1213C23.6839 16.5587 24 15.7956 24 15C24 13.35 25.35 12 27 12H31.755M16.5 32.925V27C16.5 26.2044 16.1839 25.4413 15.6213 24.8787C15.0587 24.3161 14.2956 24 13.5 24C12.7044 24 11.9413 23.6839 11.3787 23.1213C10.8161 22.5587 10.5 21.7956 10.5 21V19.5C10.5 18.7044 10.1839 17.9413 9.62132 17.3787C9.05871 16.8161 8.29565 16.5 7.5 16.5H3.075M33 18C33 26.2843 26.2843 33 18 33C9.71573 33 3 26.2843 3 18C3 9.71573 9.71573 3 18 3C26.2843 3 33 9.71573 33 18Z" stroke="white" stroke-width="2" stroke-linecap="round" stroke-linejoin="round"/>
<path d="M46.321 8.54545H51.5455L55.9773 19.3523H56.1818L60.6136 8.54545H65.8381V26H61.7301V15.2784H61.5852L57.392 25.8892H54.767L50.5739 15.2188H50.429V26H46.321V8.54545ZM69.8178 30.9091C69.3178 30.9091 68.8462 30.8693 68.403 30.7898C67.9598 30.7159 67.5791 30.6165 67.2609 30.4915L68.1814 27.4659C68.5905 27.6023 68.9598 27.6818 69.2893 27.7045C69.6246 27.7273 69.9115 27.6733 70.1501 27.5426C70.3945 27.4176 70.582 27.1932 70.7126 26.8693L70.8746 26.4773L66.2212 12.9091H70.5848L72.9967 22.25H73.1331L75.5791 12.9091H79.9683L75.0337 27.2528C74.795 27.9688 74.457 28.5994 74.0195 29.1449C73.5876 29.696 73.028 30.1278 72.3405 30.4403C71.6587 30.7528 70.8178 30.9091 69.8178 30.9091ZM83.7516 11.9716V8.54545H98.5044V11.9716H93.2118V26H89.0527V11.9716H83.7516ZM98.0054 26V12.9091H102.054V15.2955H102.19C102.429 14.4318 102.818 13.7898 103.358 13.3693C103.897 12.9432 104.525 12.7301 105.241 12.7301C105.434 12.7301 105.633 12.7443 105.838 12.7727C106.042 12.7955 106.233 12.8324 106.409 12.8835V16.5057C106.21 16.4375 105.949 16.3835 105.625 16.3438C105.307 16.304 105.022 16.2841 104.772 16.2841C104.278 16.2841 103.832 16.3949 103.434 16.6165C103.042 16.8324 102.733 17.1364 102.505 17.5284C102.284 17.9148 102.173 18.3693 102.173 18.892V26H98.0054ZM110.105 26.2216C109.27 26.2216 108.528 26.0824 107.881 25.804C107.239 25.5199 106.73 25.0937 106.355 24.5256C105.986 23.9517 105.801 23.233 105.801 22.3693C105.801 21.642 105.929 21.0284 106.185 20.5284C106.44 20.0284 106.793 19.6222 107.241 19.3097C107.69 18.9972 108.207 18.7614 108.793 18.6023C109.378 18.4375 110.003 18.3267 110.668 18.2699C111.412 18.2017 112.011 18.1307 112.466 18.0568C112.92 17.9773 113.25 17.8665 113.455 17.7244C113.665 17.5767 113.77 17.3693 113.77 17.1023V17.0597C113.77 16.6222 113.619 16.2841 113.318 16.0455C113.017 15.8068 112.611 15.6875 112.099 15.6875C111.548 15.6875 111.105 15.8068 110.77 16.0455C110.435 16.2841 110.222 16.6136 110.131 17.0341L106.287 16.8977C106.401 16.1023 106.693 15.392 107.165 14.767C107.642 14.1364 108.295 13.642 109.125 13.2841C109.96 12.9205 110.963 12.7386 112.134 12.7386C112.969 12.7386 113.739 12.8381 114.443 13.0369C115.148 13.2301 115.761 13.5142 116.284 13.8892C116.807 14.2585 117.21 14.7131 117.494 15.2528C117.784 15.7926 117.929 16.4091 117.929 17.1023V26H114.009V24.1761H113.906C113.673 24.6193 113.375 24.9943 113.011 25.3011C112.653 25.608 112.23 25.8381 111.741 25.9915C111.259 26.1449 110.713 26.2216 110.105 26.2216ZM111.392 23.4943C111.841 23.4943 112.244 23.4034 112.602 23.2216C112.966 23.0398 113.256 22.7898 113.472 22.4716C113.688 22.1477 113.795 21.7727 113.795 21.3466V20.1023C113.676 20.1648 113.531 20.2216 113.361 20.2727C113.196 20.3239 113.014 20.3722 112.815 20.4176C112.616 20.4631 112.412 20.5028 112.202 20.5369C111.991 20.571 111.79 20.6023 111.597 20.6307C111.205 20.6932 110.869 20.7898 110.591 20.9205C110.318 21.0511 110.108 21.2216 109.96 21.4318C109.818 21.6364 109.747 21.8807 109.747 22.1648C109.747 22.5966 109.901 22.9261 110.207 23.1534C110.52 23.3807 110.915 23.4943 111.392 23.4943ZM131.507 12.9091L127.016 26H122.243L117.76 12.9091H122.149L124.561 21.9261H124.698L127.118 12.9091H131.507ZM137.603 26.2472C136.234 26.2472 135.052 25.9773 134.057 25.4375C133.069 24.892 132.307 24.1165 131.773 23.1108C131.245 22.0994 130.981 20.8977 130.981 19.5057C130.981 18.1534 131.248 16.9716 131.782 15.9602C132.316 14.9432 133.069 14.1534 134.04 13.5909C135.012 13.0227 136.157 12.7386 137.475 12.7386C138.407 12.7386 139.259 12.8835 140.032 13.1733C140.805 13.4631 141.472 13.892 142.035 14.4602C142.597 15.0284 143.035 15.7301 143.347 16.5653C143.66 17.3949 143.816 18.3466 143.816 19.4205V20.4602H132.438V18.0398H139.938C139.932 17.5966 139.827 17.2017 139.623 16.8551C139.418 16.5085 139.137 16.2386 138.779 16.0455C138.427 15.8466 138.02 15.7472 137.56 15.7472C137.094 15.7472 136.677 15.8523 136.307 16.0625C135.938 16.267 135.645 16.5483 135.43 16.9062C135.214 17.2585 135.1 17.6591 135.089 18.108V20.571C135.089 21.1051 135.194 21.5739 135.404 21.9773C135.614 22.375 135.912 22.6847 136.299 22.9062C136.685 23.1278 137.145 23.2386 137.68 23.2386C138.049 23.2386 138.384 23.1875 138.685 23.0852C138.986 22.983 139.245 22.8324 139.461 22.6335C139.677 22.4347 139.839 22.1903 139.947 21.9006L143.773 22.0114C143.614 22.8693 143.265 23.6165 142.725 24.2528C142.191 24.8835 141.489 25.375 140.62 25.7273C139.751 26.0739 138.745 26.2472 137.603 26.2472ZM148.912 8.54545V26H144.744V8.54545H148.912ZM150.365 26V8.54545H157.575C158.882 8.54545 160.01 8.80114 160.959 9.3125C161.913 9.81818 162.649 10.5256 163.166 11.4347C163.683 12.3381 163.941 13.3892 163.941 14.5881C163.941 15.7926 163.677 16.8466 163.149 17.75C162.626 18.6477 161.879 19.3437 160.907 19.8381C159.936 20.3324 158.782 20.5795 157.447 20.5795H152.998V17.2557H156.663C157.299 17.2557 157.831 17.1449 158.257 16.9233C158.689 16.7017 159.015 16.392 159.237 15.9943C159.459 15.5909 159.569 15.1222 159.569 14.5881C159.569 14.0483 159.459 13.5824 159.237 13.1903C159.015 12.7926 158.689 12.4858 158.257 12.2699C157.825 12.054 157.294 11.946 156.663 11.946H154.584V26H150.365ZM168.989 8.54545V26H164.821V8.54545H168.989ZM174.132 26.2216C173.296 26.2216 172.555 26.0824 171.907 25.804C171.265 25.5199 170.757 25.0937 170.382 24.5256C170.012 23.9517 169.828 23.233 169.828 22.3693C169.828 21.642 169.956 21.0284 170.211 20.5284C170.467 20.0284 170.819 19.6222 171.268 19.3097C171.717 18.9972 172.234 18.7614 172.819 18.6023C173.404 18.4375 174.029 18.3267 174.694 18.2699C175.438 18.2017 176.038 18.1307 176.492 18.0568C176.947 17.9773 177.277 17.8665 177.481 17.7244C177.691 17.5767 177.796 17.3693 177.796 17.1023V17.0597C177.796 16.6222 177.646 16.2841 177.345 16.0455C177.044 15.8068 176.637 15.6875 176.126 15.6875C175.575 15.6875 175.132 15.8068 174.796 16.0455C174.461 16.2841 174.248 16.6136 174.157 17.0341L170.313 16.8977C170.427 16.1023 170.72 15.392 171.191 14.767C171.669 14.1364 172.322 13.642 173.152 13.2841C173.987 12.9205 174.99 12.7386 176.16 12.7386C176.995 12.7386 177.765 12.8381 178.47 13.0369C179.174 13.2301 179.788 13.5142 180.311 13.8892C180.833 14.2585 181.237 14.7131 181.521 15.2528C181.811 15.7926 181.956 16.4091 181.956 17.1023V26H178.035V24.1761H177.933C177.7 24.6193 177.402 24.9943 177.038 25.3011C176.68 25.608 176.257 25.8381 175.768 25.9915C175.285 26.1449 174.74 26.2216 174.132 26.2216ZM175.419 23.4943C175.867 23.4943 176.271 23.4034 176.629 23.2216C176.992 23.0398 177.282 22.7898 177.498 22.4716C177.714 22.1477 177.822 21.7727 177.822 21.3466V20.1023C177.703 20.1648 177.558 20.2216 177.387 20.2727C177.223 20.3239 177.041 20.3722 176.842 20.4176C176.643 20.4631 176.438 20.5028 176.228 20.5369C176.018 20.571 175.816 20.6023 175.623 20.6307C175.231 20.6932 174.896 20.7898 174.617 20.9205C174.345 21.0511 174.135 21.2216 173.987 21.4318C173.845 21.6364 173.774 21.8807 173.774 22.1648C173.774 22.5966 173.927 22.9261 174.234 23.1534C174.546 23.3807 174.941 23.4943 175.419 23.4943ZM187.471 18.5341V26H183.304V12.9091H187.267V15.3125H187.412C187.702 14.5114 188.196 13.8835 188.895 13.429C189.594 12.9688 190.426 12.7386 191.392 12.7386C192.312 12.7386 193.111 12.946 193.787 13.3608C194.469 13.7699 194.997 14.3437 195.372 15.0824C195.753 15.8153 195.94 16.6733 195.935 17.6562V26H191.767V18.4744C191.773 17.7472 191.588 17.179 191.213 16.7699C190.844 16.3608 190.329 16.1562 189.67 16.1562C189.233 16.1562 188.846 16.2528 188.511 16.446C188.182 16.6335 187.926 16.9034 187.744 17.2557C187.568 17.608 187.477 18.0341 187.471 18.5341ZM201.482 18.5341V26H197.315V12.9091H201.278V15.3125H201.423C201.712 14.5114 202.207 13.8835 202.906 13.429C203.605 12.9688 204.437 12.7386 205.403 12.7386C206.323 12.7386 207.122 12.946 207.798 13.3608C208.48 13.7699 209.008 14.3437 209.383 15.0824C209.764 15.8153 209.951 16.6733 209.945 17.6562V26H205.778V18.4744C205.784 17.7472 205.599 17.179 205.224 16.7699C204.855 16.3608 204.34 16.1562 203.681 16.1562C203.244 16.1562 202.857 16.2528 202.522 16.446C202.193 16.6335 201.937 16.9034 201.755 17.2557C201.579 17.608 201.488 18.0341 201.482 18.5341ZM213.669 26.2472C213.056 26.2472 212.53 26.0312 212.093 25.5994C211.661 25.1676 211.448 24.6449 211.454 24.0312C211.448 23.429 211.661 22.9148 212.093 22.4886C212.53 22.0568 213.056 21.8409 213.669 21.8409C214.249 21.8409 214.76 22.0568 215.204 22.4886C215.652 22.9148 215.88 23.429 215.885 24.0312C215.88 24.4403 215.772 24.8125 215.562 25.1477C215.357 25.483 215.087 25.75 214.752 25.9489C214.422 26.1477 214.062 26.2472 213.669 26.2472ZM223.558 26.2472C222.188 26.2472 221.006 25.9773 220.012 25.4375C219.023 24.892 218.262 24.1165 217.728 23.1108C217.2 22.0994 216.935 20.8977 216.935 19.5057C216.935 18.1534 217.202 16.9716 217.737 15.9602C218.271 14.9432 219.023 14.1534 219.995 13.5909C220.967 13.0227 222.112 12.7386 223.43 12.7386C224.362 12.7386 225.214 12.8835 225.987 13.1733C226.759 13.4631 227.427 13.892 227.989 14.4602C228.552 15.0284 228.989 15.7301 229.302 16.5653C229.614 17.3949 229.771 18.3466 229.771 19.4205V20.4602H218.393V18.0398H225.893C225.887 17.5966 225.782 17.2017 225.577 16.8551C225.373 16.5085 225.092 16.2386 224.734 16.0455C224.381 15.8466 223.975 15.7472 223.515 15.7472C223.049 15.7472 222.631 15.8523 222.262 16.0625C221.893 16.267 221.6 16.5483 221.384 16.9062C221.168 17.2585 221.055 17.6591 221.043 18.108V20.571C221.043 21.1051 221.148 21.5739 221.359 21.9773C221.569 22.375 221.867 22.6847 222.254 22.9062C222.64 23.1278 223.1 23.2386 223.634 23.2386C224.004 23.2386 224.339 23.1875 224.64 23.0852C224.941 22.983 225.2 22.8324 225.415 22.6335C225.631 22.4347 225.793 22.1903 225.901 21.9006L229.728 22.0114C229.569 22.8693 229.219 23.6165 228.68 24.2528C228.146 24.8835 227.444 25.375 226.575 25.7273C225.705 26.0739 224.7 26.2472 223.558 26.2472ZM230.699 26V12.9091H234.747V15.2955H234.884C235.122 14.4318 235.512 13.7898 236.051 13.3693C236.591 12.9432 237.219 12.7301 237.935 12.7301C238.128 12.7301 238.327 12.7443 238.532 12.7727C238.736 12.7955 238.926 12.8324 239.103 12.8835V16.5057C238.904 16.4375 238.642 16.3835 238.318 16.3438C238 16.304 237.716 16.2841 237.466 16.2841C236.972 16.2841 236.526 16.3949 236.128 16.6165C235.736 16.8324 235.426 17.1364 235.199 17.5284C234.978 17.9148 234.867 18.3693 234.867 18.892V26H230.699Z" fill="white"/>
</svg>
